<svg width="24" height="24" viewBox="0 0 24 24" fill="none" xmlns="http://www.w3.org/2000/svg">
    <path fill-rule="evenodd" clip-rule="evenodd" d="M16.5303 6.46967C16.2374 6.17678 15.7626 6.17678 15.4697 6.46967C15.1768 6.76256 15.1768 7.23744 15.4697 7.53033L19.1893 11.25L3 11.25C2.58579 11.25 2.25 11.5858 2.25 12C2.25 12.4142 2.58579 12.75 3 12.75L19.1893 12.75L15.4697 16.4697C15.1768 16.7626 15.1768 17.2374 15.4697 17.5303C15.7626 17.8232 16.2374 17.8232 16.5303 17.5303L21.5303 12.5303C21.6768 12.3839 21.75 12.1919 21.75 12C21.75 11.8983 21.7298 11.8013 21.6931 11.7129C21.6568 11.6251 21.603 11.5428 21.5319 11.4713C21.5314 11.4707 21.5309 11.4702 21.5303 11.4697M16.5303 6.46967L21.53 11.4694L16.5303 6.46967Z" fill="#039AB6"/>
</svg>