<svg width="111" height="44" viewBox="0 0 111 44" fill="none" xmlns="http://www.w3.org/2000/svg">
    <path d="M21.084 34.5364H22.9084C23.2417 34.5364 23.5531 34.3703 23.7389 34.0935L24.4144 33.0866C24.7834 32.5367 25.5753 32.4908 26.0053 32.9944L28.2643 35.6399C28.4543 35.8624 28.7322 35.9905 29.0247 35.9905H31.6102C31.8478 35.9905 32.0777 35.9059 32.2586 35.7518L32.8781 35.2242C33.3162 34.851 33.978 34.9237 34.3247 35.383L34.9302 36.1852C35.2903 36.6624 35.9859 36.719 36.4185 36.3063L40.1295 32.7664C40.5621 32.3538 41.2578 32.4104 41.6179 32.8876L42.0005 33.3943C42.4191 33.9489 43.2617 33.9181 43.6387 33.3344L45.0156 31.2022C45.1413 31.0075 45.3307 30.8626 45.5514 30.7921L48.1189 29.972C48.4352 29.871 48.6807 29.6197 48.7742 29.3011L49.9855 25.1744C50.0697 24.8874 50.278 24.6532 50.5532 24.536L52.3155 23.7855C52.5494 23.686 52.7365 23.5011 52.839 23.2685L53.0812 22.7183C53.4259 21.9354 54.5307 21.9187 54.899 22.6908L56.3052 25.639C56.5425 26.1364 57.1374 26.3481 57.6355 26.1124L60.149 24.9231C60.4193 24.7952 60.6181 24.5531 60.6911 24.2632L62.8854 15.5418C63.023 14.9947 63.5856 14.6697 64.1283 14.8238L64.8938 15.0411C65.3592 15.1732 65.8525 14.9532 66.0651 14.5186L67.3495 11.8933C67.594 11.3934 68.2442 11.2581 68.6678 11.6189L69.0221 11.9206C69.2799 12.1403 69.6766 12.0494 69.8131 11.7394V11.7394C69.9729 11.3763 70.4693 11.3301 70.6934 11.6573L71.9283 13.4603C72.4128 14.1677 73.5045 13.9773 73.7209 13.1477L75.4086 6.67939C75.5717 6.0543 76.2758 5.74557 76.8461 6.04913L78.4316 6.89308C78.8468 7.11411 79.3599 7.01587 79.6642 6.65711L81.6178 4.35325C81.8078 4.12918 82.0867 4 82.3805 4H85.1851C85.6469 4 86.0486 4.31619 86.1571 4.76504L86.886 7.78003C87.0971 8.6534 88.2634 8.82684 88.7195 8.05271L90.2507 5.45411" stroke="#138D00" stroke-linecap="round"/>
</svg>