<svg width="24" height="24" viewBox="0 0 24 24" fill="none" xmlns="http://www.w3.org/2000/svg">
    <path d="M15.5 5.93782C16.8345 6.70829 17.8775 7.89757 18.4672 9.32121C19.0569 10.7449 19.1603 12.3233 18.7615 13.8117C18.3627 15.3002 17.4838 16.6154 16.2613 17.5535C15.0388 18.4915 13.5409 19 12 19C10.4591 19 8.96118 18.4915 7.73867 17.5535C6.51616 16.6154 5.63735 15.3002 5.23852 13.8117C4.8397 12.3233 4.94315 10.7449 5.53285 9.32122C6.12254 7.89757 7.16551 6.70829 8.5 5.93782" stroke="#0086A2" stroke-width="1.5" stroke-linecap="round"/>
    <path d="M12 3.99996L12 13.5" stroke="#0086A2" stroke-width="1.5" stroke-linecap="round" stroke-linejoin="round"/>
    <path d="M15 11L12 14L9 11" stroke="#0086A2" stroke-width="1.5" stroke-linecap="round" stroke-linejoin="round"/>
</svg>