<svg width="24" height="24" viewBox="0 0 24 24" fill="none" xmlns="http://www.w3.org/2000/svg">
    <path d="M8.5 4H6.5C5.11929 4 4 5.11929 4 6.5V8.5" stroke="#567197" stroke-width="1.5" stroke-linecap="round"/>
    <path d="M8.5 20H6.5C5.11929 20 4 18.8807 4 17.5V15.5" stroke="#567197" stroke-width="1.5" stroke-linecap="round"/>
    <path d="M15.5 4H17.5C18.8807 4 20 5.11929 20 6.5V8.5" stroke="#567197" stroke-width="1.5" stroke-linecap="round"/>
    <path d="M15.5 20H17.5C18.8807 20 20 18.8807 20 17.5V15.5" stroke="#567197" stroke-width="1.5" stroke-linecap="round"/>
    <path d="M12 11.4892L12 15.5" stroke="#567197" stroke-width="1.5" stroke-linecap="round"/>
    <path d="M12.3994 7.9C12.3994 8.12091 12.2203 8.3 11.9994 8.3C11.7785 8.3 11.5994 8.12091 11.5994 7.9C11.5994 7.67909 11.7785 7.5 11.9994 7.5C12.2203 7.5 12.3994 7.67909 12.3994 7.9Z" fill="#567197" stroke="#567197"/>
</svg>
