<svg width="24" height="24" viewBox="0 0 24 24" fill="none" xmlns="http://www.w3.org/2000/svg">
    <path d="M10 12L21.5 12" stroke="#0086A2" stroke-width="1.5" stroke-linecap="round" stroke-linejoin="round"/>
    <path d="M19 9L22 12L19 15" stroke="#0086A2" stroke-width="1.5" stroke-linecap="round" stroke-linejoin="round"/>
    <path d="M15.5622 15.5C14.7917 16.8345 13.6024 17.8775 12.1788 18.4672C10.7551 19.0569 9.1767 19.1603 7.68827 18.7615C6.19983 18.3627 4.88459 17.4838 3.94653 16.2613C3.00846 15.0388 2.5 13.5409 2.5 12C2.5 10.4591 3.00846 8.96118 3.94653 7.73867C4.88459 6.51616 6.19983 5.63735 7.68827 5.23852C9.1767 4.8397 10.7551 4.94315 12.1788 5.53285C13.6024 6.12254 14.7917 7.16551 15.5622 8.5" stroke="#0086A2" stroke-width="1.5" stroke-linecap="round"/>
</svg>